<svg xmlns="http://www.w3.org/2000/svg" viewBox="0 0 56 56" width="56" height="56"><line x1="34.9" y1="25.8" x2="39.1" y2="24.4" stroke="#5fa8a8" stroke-width="0.6"/>
<line x1="39.1" y1="24.4" x2="46.0" y2="26.6" stroke="#5fa8a8" stroke-width="0.6"/>
<line x1="46.0" y1="26.6" x2="34.9" y2="25.8" stroke="#5fa8a8" stroke-width="0.6"/>
<line x1="34.9" y1="27.5" x2="34.9" y2="25.8" stroke="#5fa8a8" stroke-width="0.6"/>
<line x1="34.9" y1="25.8" x2="28.0" y2="28.0" stroke="#5fa8a8" stroke-width="0.6"/>
<line x1="28.0" y1="28.0" x2="34.9" y2="27.5" stroke="#5fa8a8" stroke-width="0.6"/>
<line x1="34.9" y1="27.5" x2="46.0" y2="26.6" stroke="#5fa8a8" stroke-width="0.6"/>
<line x1="46.0" y1="26.6" x2="51.8" y2="25.8" stroke="#c9a84c" stroke-width="0.7"/>
<line x1="43.3" y1="25.8" x2="39.1" y2="24.4" stroke="#5fa8a8" stroke-width="0.6"/>
<line x1="50.2" y1="23.5" x2="39.1" y2="24.4" stroke="#c9a84c" stroke-width="0.7"/>
<line x1="46.0" y1="29.4" x2="28.0" y2="28.0" stroke="#5fa8a8" stroke-width="0.6"/>
<line x1="28.0" y1="28.0" x2="34.9" y2="28.5" stroke="#5fa8a8" stroke-width="0.6"/>
<line x1="34.9" y1="28.5" x2="46.0" y2="29.4" stroke="#5fa8a8" stroke-width="0.6"/>
<line x1="28.0" y1="28.0" x2="34.9" y2="30.2" stroke="#5fa8a8" stroke-width="0.6"/>
<line x1="34.9" y1="30.2" x2="46.0" y2="33.8" stroke="#c9a84c" stroke-width="0.7"/>
<line x1="46.0" y1="31.1" x2="28.0" y2="28.0" stroke="#c9a84c" stroke-width="0.7"/>
<line x1="32.2" y1="33.8" x2="34.9" y2="37.4" stroke="#5fa8a8" stroke-width="0.6"/>
<line x1="34.9" y1="37.4" x2="41.7" y2="39.7" stroke="#5fa8a8" stroke-width="0.6"/>
<line x1="41.7" y1="39.7" x2="32.2" y2="33.8" stroke="#5fa8a8" stroke-width="0.6"/>
<line x1="33.2" y1="32.5" x2="32.2" y2="33.8" stroke="#5fa8a8" stroke-width="0.6"/>
<line x1="32.2" y1="33.8" x2="28.0" y2="28.0" stroke="#5fa8a8" stroke-width="0.6"/>
<line x1="28.0" y1="28.0" x2="33.2" y2="32.5" stroke="#5fa8a8" stroke-width="0.6"/>
<line x1="33.2" y1="32.5" x2="41.7" y2="39.7" stroke="#5fa8a8" stroke-width="0.6"/>
<line x1="52.8" y1="50.5" x2="55.4" y2="51.3" stroke="#c9a84c" stroke-width="0.7"/>
<line x1="46.0" y1="43.8" x2="55.4" y2="51.3" stroke="#c9a84c" stroke-width="0.7"/>
<line x1="55.4" y1="51.3" x2="41.7" y2="39.7" stroke="#c9a84c" stroke-width="0.7"/>
<line x1="41.7" y1="39.7" x2="46.0" y2="43.8" stroke="#c9a84c" stroke-width="0.7"/>
<line x1="46.0" y1="43.8" x2="52.8" y2="50.5" stroke="#c9a84c" stroke-width="0.7"/>
<line x1="39.1" y1="38.8" x2="34.9" y2="37.4" stroke="#5fa8a8" stroke-width="0.6"/>
<line x1="34.9" y1="37.4" x2="52.8" y2="50.5" stroke="#c9a84c" stroke-width="0.7"/>
<line x1="52.8" y1="50.5" x2="39.1" y2="38.8" stroke="#c9a84c" stroke-width="0.7"/>
<line x1="48.6" y1="49.1" x2="34.9" y2="37.4" stroke="#c9a84c" stroke-width="0.7"/>
<line x1="34.9" y1="37.4" x2="46.0" y2="52.7" stroke="#c9a84c" stroke-width="0.7"/>
<line x1="46.0" y1="52.7" x2="48.6" y2="49.1" stroke="#5fa8a8" stroke-width="0.6"/>
<line x1="43.3" y1="44.7" x2="34.9" y2="37.4" stroke="#5fa8a8" stroke-width="0.6"/>
<line x1="46.0" y1="52.7" x2="43.3" y2="44.7" stroke="#5fa8a8" stroke-width="0.6"/>
<line x1="52.8" y1="55.0" x2="43.3" y2="44.7" stroke="#5fa8a8" stroke-width="0.6"/>
<line x1="52.8" y1="55.0" x2="46.0" y2="52.7" stroke="#5fa8a8" stroke-width="0.6"/>
<line x1="52.8" y1="43.3" x2="43.3" y2="37.4" stroke="#c9a84c" stroke-width="0.7"/>
<line x1="43.3" y1="37.4" x2="28.0" y2="28.0" stroke="#5fa8a8" stroke-width="0.6"/>
<line x1="28.0" y1="28.0" x2="33.9" y2="31.6" stroke="#5fa8a8" stroke-width="0.6"/>
<line x1="33.9" y1="31.6" x2="43.3" y2="37.4" stroke="#5fa8a8" stroke-width="0.6"/>
<line x1="43.3" y1="37.4" x2="53.8" y2="41.9" stroke="#c9a84c" stroke-width="0.7"/>
<line x1="46.0" y1="33.8" x2="54.4" y2="41.0" stroke="#c9a84c" stroke-width="0.7"/>
<line x1="34.9" y1="30.2" x2="54.4" y2="41.0" stroke="#c9a84c" stroke-width="0.7"/>
<line x1="54.4" y1="41.0" x2="28.0" y2="28.0" stroke="#c9a84c" stroke-width="0.7"/>
<line x1="55.4" y1="51.3" x2="50.2" y2="46.9" stroke="#c9a84c" stroke-width="0.7"/>
<line x1="52.8" y1="43.3" x2="50.2" y2="46.9" stroke="#c9a84c" stroke-width="0.7"/>
<line x1="50.2" y1="46.9" x2="28.0" y2="28.0" stroke="#5fa8a8" stroke-width="0.6"/>
<line x1="28.0" y1="28.0" x2="52.8" y2="43.3" stroke="#c9a84c" stroke-width="0.7"/>
<line x1="51.8" y1="44.7" x2="50.2" y2="46.9" stroke="#c9a84c" stroke-width="0.7"/>
<line x1="28.0" y1="28.0" x2="51.8" y2="44.7" stroke="#c9a84c" stroke-width="0.7"/>
<line x1="44.3" y1="36.1" x2="51.8" y2="44.7" stroke="#c9a84c" stroke-width="0.7"/>
<line x1="51.8" y1="44.7" x2="54.4" y2="41.0" stroke="#c9a84c" stroke-width="0.7"/>
<line x1="54.4" y1="41.0" x2="44.3" y2="36.1" stroke="#c9a84c" stroke-width="0.7"/>
<line x1="44.3" y1="36.1" x2="28.0" y2="28.0" stroke="#c9a84c" stroke-width="0.7"/>
<line x1="34.9" y1="37.4" x2="34.9" y2="44.7" stroke="#5fa8a8" stroke-width="0.6"/>
<line x1="34.9" y1="44.7" x2="32.2" y2="33.8" stroke="#5fa8a8" stroke-width="0.6"/>
<line x1="30.6" y1="34.4" x2="32.2" y2="33.8" stroke="#5fa8a8" stroke-width="0.6"/>
<line x1="28.0" y1="28.0" x2="30.6" y2="34.4" stroke="#5fa8a8" stroke-width="0.6"/>
<line x1="30.6" y1="34.4" x2="34.9" y2="44.7" stroke="#5fa8a8" stroke-width="0.6"/>
<line x1="34.9" y1="44.7" x2="37.5" y2="50.0" stroke="#c9a84c" stroke-width="0.7"/>
<line x1="34.9" y1="41.9" x2="34.9" y2="37.4" stroke="#5fa8a8" stroke-width="0.6"/>
<line x1="41.7" y1="54.1" x2="34.9" y2="37.4" stroke="#c9a84c" stroke-width="0.7"/>
<line x1="46.0" y1="52.7" x2="41.7" y2="54.1" stroke="#5fa8a8" stroke-width="0.6"/>
<line x1="39.1" y1="47.7" x2="34.9" y2="37.4" stroke="#c9a84c" stroke-width="0.7"/>
<line x1="46.0" y1="52.7" x2="39.1" y2="47.7" stroke="#5fa8a8" stroke-width="0.6"/>
<line x1="32.2" y1="45.5" x2="28.0" y2="28.0" stroke="#5fa8a8" stroke-width="0.6"/>
<line x1="28.0" y1="28.0" x2="29.6" y2="34.7" stroke="#5fa8a8" stroke-width="0.6"/>
<line x1="29.6" y1="34.7" x2="32.2" y2="45.5" stroke="#5fa8a8" stroke-width="0.6"/>
<line x1="28.0" y1="28.0" x2="28.0" y2="35.2" stroke="#5fa8a8" stroke-width="0.6"/>
<line x1="28.0" y1="35.2" x2="28.0" y2="46.9" stroke="#c9a84c" stroke-width="0.7"/>
<line x1="39.1" y1="55.0" x2="28.0" y2="28.0" stroke="#5fa8a8" stroke-width="0.6"/>
<line x1="36.5" y1="55.8" x2="39.1" y2="55.0" stroke="#c9a84c" stroke-width="0.7"/>
<line x1="28.0" y1="28.0" x2="36.5" y2="55.8" stroke="#5fa8a8" stroke-width="0.6"/>
<line x1="30.6" y1="46.0" x2="36.5" y2="55.8" stroke="#c9a84c" stroke-width="0.7"/>
<line x1="30.6" y1="46.0" x2="28.0" y2="28.0" stroke="#c9a84c" stroke-width="0.7"/>
<line x1="23.8" y1="33.8" x2="21.1" y2="37.4" stroke="#5fa8a8" stroke-width="0.6"/>
<line x1="21.1" y1="37.4" x2="21.1" y2="44.7" stroke="#5fa8a8" stroke-width="0.6"/>
<line x1="21.1" y1="44.7" x2="23.8" y2="33.8" stroke="#5fa8a8" stroke-width="0.6"/>
<line x1="25.4" y1="34.4" x2="23.8" y2="33.8" stroke="#5fa8a8" stroke-width="0.6"/>
<line x1="23.8" y1="33.8" x2="28.0" y2="28.0" stroke="#5fa8a8" stroke-width="0.6"/>
<line x1="28.0" y1="28.0" x2="25.4" y2="34.4" stroke="#5fa8a8" stroke-width="0.6"/>
<line x1="25.4" y1="34.4" x2="21.1" y2="44.7" stroke="#5fa8a8" stroke-width="0.6"/>
<line x1="21.1" y1="44.7" x2="18.5" y2="50.0" stroke="#c9a84c" stroke-width="0.7"/>
<line x1="21.1" y1="41.9" x2="21.1" y2="37.4" stroke="#5fa8a8" stroke-width="0.6"/>
<line x1="14.3" y1="54.1" x2="21.1" y2="37.4" stroke="#c9a84c" stroke-width="0.7"/>
<line x1="21.1" y1="37.4" x2="10.0" y2="52.7" stroke="#c9a84c" stroke-width="0.7"/>
<line x1="10.0" y1="52.7" x2="14.3" y2="54.1" stroke="#5fa8a8" stroke-width="0.6"/>
<line x1="16.9" y1="47.7" x2="21.1" y2="37.4" stroke="#c9a84c" stroke-width="0.7"/>
<line x1="10.0" y1="52.7" x2="16.9" y2="47.7" stroke="#5fa8a8" stroke-width="0.6"/>
<line x1="23.8" y1="45.5" x2="28.0" y2="28.0" stroke="#5fa8a8" stroke-width="0.6"/>
<line x1="28.0" y1="28.0" x2="26.4" y2="34.7" stroke="#5fa8a8" stroke-width="0.6"/>
<line x1="26.4" y1="34.7" x2="23.8" y2="45.5" stroke="#5fa8a8" stroke-width="0.6"/>
<line x1="16.9" y1="55.0" x2="28.0" y2="28.0" stroke="#5fa8a8" stroke-width="0.6"/>
<line x1="19.5" y1="55.8" x2="16.9" y2="55.0" stroke="#c9a84c" stroke-width="0.7"/>
<line x1="28.0" y1="28.0" x2="19.5" y2="55.8" stroke="#5fa8a8" stroke-width="0.6"/>
<line x1="25.4" y1="46.0" x2="19.5" y2="55.8" stroke="#c9a84c" stroke-width="0.7"/>
<line x1="25.4" y1="46.0" x2="28.0" y2="28.0" stroke="#c9a84c" stroke-width="0.7"/>
<line x1="21.1" y1="37.4" x2="14.3" y2="39.7" stroke="#5fa8a8" stroke-width="0.6"/>
<line x1="14.3" y1="39.7" x2="23.8" y2="33.8" stroke="#5fa8a8" stroke-width="0.6"/>
<line x1="22.8" y1="32.5" x2="23.8" y2="33.8" stroke="#5fa8a8" stroke-width="0.6"/>
<line x1="28.0" y1="28.0" x2="22.8" y2="32.5" stroke="#5fa8a8" stroke-width="0.6"/>
<line x1="22.8" y1="32.5" x2="14.3" y2="39.7" stroke="#5fa8a8" stroke-width="0.6"/>
<line x1="3.2" y1="50.5" x2="0.6" y2="51.3" stroke="#c9a84c" stroke-width="0.7"/>
<line x1="10.0" y1="43.8" x2="0.6" y2="51.3" stroke="#c9a84c" stroke-width="0.7"/>
<line x1="0.6" y1="51.3" x2="14.3" y2="39.7" stroke="#c9a84c" stroke-width="0.7"/>
<line x1="14.3" y1="39.7" x2="10.0" y2="43.8" stroke="#c9a84c" stroke-width="0.7"/>
<line x1="10.0" y1="43.8" x2="3.2" y2="50.5" stroke="#c9a84c" stroke-width="0.7"/>
<line x1="16.9" y1="38.8" x2="21.1" y2="37.4" stroke="#5fa8a8" stroke-width="0.6"/>
<line x1="21.1" y1="37.4" x2="3.2" y2="50.5" stroke="#c9a84c" stroke-width="0.7"/>
<line x1="3.2" y1="50.5" x2="16.9" y2="38.8" stroke="#c9a84c" stroke-width="0.7"/>
<line x1="7.4" y1="49.1" x2="21.1" y2="37.4" stroke="#c9a84c" stroke-width="0.7"/>
<line x1="10.0" y1="52.7" x2="7.4" y2="49.1" stroke="#5fa8a8" stroke-width="0.6"/>
<line x1="12.7" y1="44.7" x2="21.1" y2="37.4" stroke="#5fa8a8" stroke-width="0.6"/>
<line x1="10.0" y1="52.7" x2="12.7" y2="44.7" stroke="#5fa8a8" stroke-width="0.6"/>
<line x1="3.2" y1="55.0" x2="12.7" y2="44.7" stroke="#5fa8a8" stroke-width="0.6"/>
<line x1="3.2" y1="55.0" x2="10.0" y2="52.7" stroke="#5fa8a8" stroke-width="0.6"/>
<line x1="3.2" y1="43.3" x2="12.7" y2="37.4" stroke="#c9a84c" stroke-width="0.7"/>
<line x1="12.7" y1="37.4" x2="28.0" y2="28.0" stroke="#5fa8a8" stroke-width="0.6"/>
<line x1="28.0" y1="28.0" x2="22.1" y2="31.6" stroke="#5fa8a8" stroke-width="0.6"/>
<line x1="22.1" y1="31.6" x2="12.7" y2="37.4" stroke="#5fa8a8" stroke-width="0.6"/>
<line x1="12.7" y1="37.4" x2="2.2" y2="41.9" stroke="#c9a84c" stroke-width="0.7"/>
<line x1="10.0" y1="33.8" x2="1.6" y2="41.0" stroke="#c9a84c" stroke-width="0.7"/>
<line x1="21.1" y1="30.2" x2="1.6" y2="41.0" stroke="#c9a84c" stroke-width="0.7"/>
<line x1="1.6" y1="41.0" x2="28.0" y2="28.0" stroke="#c9a84c" stroke-width="0.7"/>
<line x1="28.0" y1="28.0" x2="21.1" y2="30.2" stroke="#5fa8a8" stroke-width="0.6"/>
<line x1="21.1" y1="30.2" x2="10.0" y2="33.8" stroke="#c9a84c" stroke-width="0.7"/>
<line x1="0.6" y1="51.3" x2="5.8" y2="46.9" stroke="#c9a84c" stroke-width="0.7"/>
<line x1="3.2" y1="43.3" x2="5.8" y2="46.9" stroke="#c9a84c" stroke-width="0.7"/>
<line x1="5.8" y1="46.9" x2="28.0" y2="28.0" stroke="#5fa8a8" stroke-width="0.6"/>
<line x1="28.0" y1="28.0" x2="3.2" y2="43.3" stroke="#c9a84c" stroke-width="0.7"/>
<line x1="4.2" y1="44.7" x2="5.8" y2="46.9" stroke="#c9a84c" stroke-width="0.7"/>
<line x1="28.0" y1="28.0" x2="4.2" y2="44.7" stroke="#c9a84c" stroke-width="0.7"/>
<line x1="11.7" y1="36.1" x2="4.2" y2="44.7" stroke="#c9a84c" stroke-width="0.7"/>
<line x1="4.2" y1="44.7" x2="1.6" y2="41.0" stroke="#c9a84c" stroke-width="0.7"/>
<line x1="1.6" y1="41.0" x2="11.7" y2="36.1" stroke="#c9a84c" stroke-width="0.7"/>
<line x1="11.7" y1="36.1" x2="28.0" y2="28.0" stroke="#c9a84c" stroke-width="0.7"/>
<line x1="21.1" y1="25.8" x2="16.9" y2="24.4" stroke="#5fa8a8" stroke-width="0.6"/>
<line x1="16.9" y1="24.4" x2="10.0" y2="26.6" stroke="#5fa8a8" stroke-width="0.6"/>
<line x1="10.0" y1="26.6" x2="21.1" y2="25.8" stroke="#5fa8a8" stroke-width="0.6"/>
<line x1="21.1" y1="27.5" x2="21.1" y2="25.8" stroke="#5fa8a8" stroke-width="0.6"/>
<line x1="21.1" y1="25.8" x2="28.0" y2="28.0" stroke="#5fa8a8" stroke-width="0.6"/>
<line x1="28.0" y1="28.0" x2="21.1" y2="27.5" stroke="#5fa8a8" stroke-width="0.6"/>
<line x1="21.1" y1="27.5" x2="10.0" y2="26.6" stroke="#5fa8a8" stroke-width="0.6"/>
<line x1="10.0" y1="26.6" x2="4.2" y2="25.8" stroke="#c9a84c" stroke-width="0.7"/>
<line x1="12.7" y1="25.8" x2="16.9" y2="24.4" stroke="#5fa8a8" stroke-width="0.6"/>
<line x1="5.8" y1="23.5" x2="16.9" y2="24.4" stroke="#c9a84c" stroke-width="0.7"/>
<line x1="10.0" y1="29.4" x2="28.0" y2="28.0" stroke="#5fa8a8" stroke-width="0.6"/>
<line x1="28.0" y1="28.0" x2="21.1" y2="28.5" stroke="#5fa8a8" stroke-width="0.6"/>
<line x1="21.1" y1="28.5" x2="10.0" y2="29.4" stroke="#5fa8a8" stroke-width="0.6"/>
<line x1="10.0" y1="31.1" x2="28.0" y2="28.0" stroke="#c9a84c" stroke-width="0.7"/>
<line x1="16.9" y1="24.4" x2="12.7" y2="18.6" stroke="#5fa8a8" stroke-width="0.6"/>
<line x1="12.7" y1="18.6" x2="21.1" y2="25.8" stroke="#5fa8a8" stroke-width="0.6"/>
<line x1="22.1" y1="24.4" x2="21.1" y2="25.8" stroke="#5fa8a8" stroke-width="0.6"/>
<line x1="28.0" y1="28.0" x2="22.1" y2="24.4" stroke="#5fa8a8" stroke-width="0.6"/>
<line x1="22.1" y1="24.4" x2="12.7" y2="18.6" stroke="#5fa8a8" stroke-width="0.6"/>
<line x1="12.7" y1="18.6" x2="7.4" y2="15.8" stroke="#c9a84c" stroke-width="0.7"/>
<line x1="14.3" y1="20.8" x2="16.9" y2="24.4" stroke="#5fa8a8" stroke-width="0.6"/>
<line x1="1.6" y1="15.0" x2="16.9" y2="24.4" stroke="#c9a84c" stroke-width="0.7"/>
<line x1="7.4" y1="18.6" x2="16.9" y2="24.4" stroke="#5fa8a8" stroke-width="0.6"/>
<line x1="28.0" y1="28.0" x2="3.2" y2="1.0" stroke="#c9a84c" stroke-width="0.7"/>
<line x1="5.8" y1="9.1" x2="14.3" y2="16.3" stroke="#c9a84c" stroke-width="0.7"/>
<line x1="14.3" y1="16.3" x2="28.0" y2="28.0" stroke="#5fa8a8" stroke-width="0.6"/>
<line x1="14.3" y1="16.3" x2="10.0" y2="3.3" stroke="#c9a84c" stroke-width="0.7"/>
<line x1="22.8" y1="23.5" x2="10.0" y2="3.3" stroke="#c9a84c" stroke-width="0.7"/>
<line x1="10.0" y1="3.3" x2="28.0" y2="28.0" stroke="#c9a84c" stroke-width="0.7"/>
<line x1="28.0" y1="28.0" x2="22.8" y2="23.5" stroke="#5fa8a8" stroke-width="0.6"/>
<line x1="22.8" y1="23.5" x2="14.3" y2="16.3" stroke="#5fa8a8" stroke-width="0.6"/>
<line x1="6.8" y1="7.7" x2="0.6" y2="4.7" stroke="#c9a84c" stroke-width="0.7"/>
<line x1="0.6" y1="4.7" x2="14.3" y2="16.3" stroke="#c9a84c" stroke-width="0.7"/>
<line x1="14.3" y1="16.3" x2="6.8" y2="7.7" stroke="#c9a84c" stroke-width="0.7"/>
<line x1="16.9" y1="12.7" x2="7.4" y2="6.9" stroke="#c9a84c" stroke-width="0.7"/>
<line x1="23.8" y1="22.2" x2="7.4" y2="6.9" stroke="#c9a84c" stroke-width="0.7"/>
<line x1="7.4" y1="6.9" x2="28.0" y2="28.0" stroke="#c9a84c" stroke-width="0.7"/>
<line x1="28.0" y1="28.0" x2="23.8" y2="22.2" stroke="#5fa8a8" stroke-width="0.6"/>
<line x1="23.8" y1="22.2" x2="16.9" y2="12.7" stroke="#c9a84c" stroke-width="0.7"/>
<line x1="16.9" y1="12.7" x2="9.4" y2="4.1" stroke="#c9a84c" stroke-width="0.7"/>
<line x1="5.8" y1="9.1" x2="3.2" y2="12.7" stroke="#c9a84c" stroke-width="0.7"/>
<line x1="3.2" y1="12.7" x2="28.0" y2="28.0" stroke="#5fa8a8" stroke-width="0.6"/>
<line x1="28.0" y1="28.0" x2="5.8" y2="9.1" stroke="#c9a84c" stroke-width="0.7"/>
<line x1="4.8" y1="10.5" x2="3.2" y2="12.7" stroke="#c9a84c" stroke-width="0.7"/>
<line x1="28.0" y1="28.0" x2="4.8" y2="10.5" stroke="#c9a84c" stroke-width="0.7"/>
<line x1="15.3" y1="15.0" x2="4.8" y2="10.5" stroke="#c9a84c" stroke-width="0.7"/>
<line x1="4.8" y1="10.5" x2="7.4" y2="6.9" stroke="#c9a84c" stroke-width="0.7"/>
<line x1="7.4" y1="6.9" x2="15.3" y2="15.0" stroke="#c9a84c" stroke-width="0.7"/>
<line x1="15.3" y1="15.0" x2="28.0" y2="28.0" stroke="#5fa8a8" stroke-width="0.6"/>
<line x1="28.0" y1="20.8" x2="28.0" y2="16.3" stroke="#5fa8a8" stroke-width="0.6"/>
<line x1="28.0" y1="16.3" x2="23.8" y2="10.5" stroke="#5fa8a8" stroke-width="0.6"/>
<line x1="23.8" y1="10.5" x2="28.0" y2="20.8" stroke="#5fa8a8" stroke-width="0.6"/>
<line x1="26.4" y1="21.3" x2="28.0" y2="20.8" stroke="#5fa8a8" stroke-width="0.6"/>
<line x1="28.0" y1="20.8" x2="28.0" y2="28.0" stroke="#5fa8a8" stroke-width="0.6"/>
<line x1="28.0" y1="28.0" x2="26.4" y2="21.3" stroke="#5fa8a8" stroke-width="0.6"/>
<line x1="26.4" y1="21.3" x2="23.8" y2="10.5" stroke="#5fa8a8" stroke-width="0.6"/>
<line x1="23.8" y1="10.5" x2="22.8" y2="4.7" stroke="#c9a84c" stroke-width="0.7"/>
<line x1="25.4" y1="12.7" x2="28.0" y2="16.3" stroke="#5fa8a8" stroke-width="0.6"/>
<line x1="25.4" y1="5.5" x2="28.0" y2="16.3" stroke="#c9a84c" stroke-width="0.7"/>
<line x1="16.9" y1="1.0" x2="21.1" y2="11.3" stroke="#c9a84c" stroke-width="0.7"/>
<line x1="21.1" y1="11.3" x2="28.0" y2="28.0" stroke="#5fa8a8" stroke-width="0.6"/>
<line x1="21.1" y1="11.3" x2="10.0" y2="3.3" stroke="#c9a84c" stroke-width="0.7"/>
<line x1="25.4" y1="21.6" x2="10.0" y2="3.3" stroke="#c9a84c" stroke-width="0.7"/>
<line x1="28.0" y1="28.0" x2="25.4" y2="21.6" stroke="#5fa8a8" stroke-width="0.6"/>
<line x1="25.4" y1="21.6" x2="21.1" y2="11.3" stroke="#5fa8a8" stroke-width="0.6"/>
<line x1="21.1" y1="11.3" x2="15.3" y2="1.6" stroke="#c9a84c" stroke-width="0.7"/>
<line x1="16.9" y1="12.7" x2="14.3" y2="1.9" stroke="#c9a84c" stroke-width="0.7"/>
<line x1="23.8" y1="22.2" x2="14.3" y2="1.9" stroke="#c9a84c" stroke-width="0.7"/>
<line x1="14.3" y1="1.9" x2="28.0" y2="28.0" stroke="#c9a84c" stroke-width="0.7"/>
<line x1="16.9" y1="12.7" x2="11.0" y2="3.0" stroke="#c9a84c" stroke-width="0.7"/>
<line x1="28.0" y1="28.0" x2="16.9" y2="1.0" stroke="#c9a84c" stroke-width="0.7"/>
<line x1="28.0" y1="28.0" x2="18.5" y2="0.5" stroke="#5fa8a8" stroke-width="0.6"/>
<line x1="19.5" y1="11.9" x2="18.5" y2="0.5" stroke="#c9a84c" stroke-width="0.7"/>
<line x1="18.5" y1="0.5" x2="14.3" y2="1.9" stroke="#c9a84c" stroke-width="0.7"/>
<line x1="14.3" y1="1.9" x2="19.5" y2="11.9" stroke="#c9a84c" stroke-width="0.7"/>
<line x1="19.5" y1="11.9" x2="28.0" y2="28.0" stroke="#5fa8a8" stroke-width="0.6"/>
<line x1="28.0" y1="16.3" x2="32.2" y2="10.5" stroke="#5fa8a8" stroke-width="0.6"/>
<line x1="32.2" y1="10.5" x2="28.0" y2="20.8" stroke="#5fa8a8" stroke-width="0.6"/>
<line x1="29.6" y1="21.3" x2="28.0" y2="20.8" stroke="#5fa8a8" stroke-width="0.6"/>
<line x1="28.0" y1="28.0" x2="29.6" y2="21.3" stroke="#5fa8a8" stroke-width="0.6"/>
<line x1="29.6" y1="21.3" x2="32.2" y2="10.5" stroke="#5fa8a8" stroke-width="0.6"/>
<line x1="32.2" y1="10.5" x2="33.2" y2="4.7" stroke="#c9a84c" stroke-width="0.7"/>
<line x1="30.6" y1="12.7" x2="28.0" y2="16.3" stroke="#5fa8a8" stroke-width="0.6"/>
<line x1="30.6" y1="5.5" x2="28.0" y2="16.3" stroke="#c9a84c" stroke-width="0.7"/>
<line x1="39.1" y1="1.0" x2="34.9" y2="11.3" stroke="#c9a84c" stroke-width="0.7"/>
<line x1="34.9" y1="11.3" x2="28.0" y2="28.0" stroke="#5fa8a8" stroke-width="0.6"/>
<line x1="34.9" y1="11.3" x2="46.0" y2="3.3" stroke="#c9a84c" stroke-width="0.7"/>
<line x1="30.6" y1="21.6" x2="46.0" y2="3.3" stroke="#c9a84c" stroke-width="0.7"/>
<line x1="46.0" y1="3.3" x2="28.0" y2="28.0" stroke="#c9a84c" stroke-width="0.7"/>
<line x1="28.0" y1="28.0" x2="30.6" y2="21.6" stroke="#5fa8a8" stroke-width="0.6"/>
<line x1="30.6" y1="21.6" x2="34.9" y2="11.3" stroke="#5fa8a8" stroke-width="0.6"/>
<line x1="34.9" y1="11.3" x2="40.7" y2="1.6" stroke="#c9a84c" stroke-width="0.7"/>
<line x1="39.1" y1="12.7" x2="41.7" y2="1.9" stroke="#c9a84c" stroke-width="0.7"/>
<line x1="32.2" y1="22.2" x2="41.7" y2="1.9" stroke="#c9a84c" stroke-width="0.7"/>
<line x1="41.7" y1="1.9" x2="28.0" y2="28.0" stroke="#c9a84c" stroke-width="0.7"/>
<line x1="28.0" y1="28.0" x2="32.2" y2="22.2" stroke="#5fa8a8" stroke-width="0.6"/>
<line x1="32.2" y1="22.2" x2="39.1" y2="12.7" stroke="#c9a84c" stroke-width="0.7"/>
<line x1="39.1" y1="12.7" x2="45.0" y2="3.0" stroke="#c9a84c" stroke-width="0.7"/>
<line x1="28.0" y1="28.0" x2="39.1" y2="1.0" stroke="#c9a84c" stroke-width="0.7"/>
<line x1="28.0" y1="28.0" x2="37.5" y2="0.5" stroke="#5fa8a8" stroke-width="0.6"/>
<line x1="36.5" y1="11.9" x2="37.5" y2="0.5" stroke="#c9a84c" stroke-width="0.7"/>
<line x1="37.5" y1="0.5" x2="41.7" y2="1.9" stroke="#c9a84c" stroke-width="0.7"/>
<line x1="41.7" y1="1.9" x2="36.5" y2="11.9" stroke="#c9a84c" stroke-width="0.7"/>
<line x1="36.5" y1="11.9" x2="28.0" y2="28.0" stroke="#5fa8a8" stroke-width="0.6"/>
<line x1="39.1" y1="24.4" x2="43.3" y2="18.6" stroke="#5fa8a8" stroke-width="0.6"/>
<line x1="43.3" y1="18.6" x2="34.9" y2="25.8" stroke="#5fa8a8" stroke-width="0.6"/>
<line x1="33.9" y1="24.4" x2="34.9" y2="25.8" stroke="#5fa8a8" stroke-width="0.6"/>
<line x1="28.0" y1="28.0" x2="33.9" y2="24.4" stroke="#5fa8a8" stroke-width="0.6"/>
<line x1="33.9" y1="24.4" x2="43.3" y2="18.6" stroke="#5fa8a8" stroke-width="0.6"/>
<line x1="43.3" y1="18.6" x2="48.6" y2="15.8" stroke="#c9a84c" stroke-width="0.7"/>
<line x1="41.7" y1="20.8" x2="39.1" y2="24.4" stroke="#5fa8a8" stroke-width="0.6"/>
<line x1="54.4" y1="15.0" x2="39.1" y2="24.4" stroke="#c9a84c" stroke-width="0.7"/>
<line x1="48.6" y1="18.6" x2="39.1" y2="24.4" stroke="#5fa8a8" stroke-width="0.6"/>
<line x1="28.0" y1="28.0" x2="52.8" y2="1.0" stroke="#c9a84c" stroke-width="0.7"/>
<line x1="50.2" y1="9.1" x2="41.7" y2="16.3" stroke="#c9a84c" stroke-width="0.7"/>
<line x1="41.7" y1="16.3" x2="28.0" y2="28.0" stroke="#5fa8a8" stroke-width="0.6"/>
<line x1="41.7" y1="16.3" x2="46.0" y2="3.3" stroke="#c9a84c" stroke-width="0.7"/>
<line x1="33.2" y1="23.5" x2="46.0" y2="3.3" stroke="#c9a84c" stroke-width="0.7"/>
<line x1="28.0" y1="28.0" x2="33.2" y2="23.5" stroke="#5fa8a8" stroke-width="0.6"/>
<line x1="33.2" y1="23.5" x2="41.7" y2="16.3" stroke="#5fa8a8" stroke-width="0.6"/>
<line x1="49.2" y1="7.7" x2="55.4" y2="4.7" stroke="#c9a84c" stroke-width="0.7"/>
<line x1="55.4" y1="4.7" x2="41.7" y2="16.3" stroke="#c9a84c" stroke-width="0.7"/>
<line x1="41.7" y1="16.3" x2="49.2" y2="7.7" stroke="#c9a84c" stroke-width="0.7"/>
<line x1="39.1" y1="12.7" x2="48.6" y2="6.9" stroke="#c9a84c" stroke-width="0.7"/>
<line x1="32.2" y1="22.2" x2="48.6" y2="6.9" stroke="#c9a84c" stroke-width="0.7"/>
<line x1="48.6" y1="6.9" x2="28.0" y2="28.0" stroke="#c9a84c" stroke-width="0.7"/>
<line x1="39.1" y1="12.7" x2="46.6" y2="4.1" stroke="#c9a84c" stroke-width="0.7"/>
<line x1="50.2" y1="9.1" x2="52.8" y2="12.7" stroke="#c9a84c" stroke-width="0.7"/>
<line x1="52.8" y1="12.7" x2="28.0" y2="28.0" stroke="#5fa8a8" stroke-width="0.6"/>
<line x1="28.0" y1="28.0" x2="50.2" y2="9.1" stroke="#c9a84c" stroke-width="0.7"/>
<line x1="51.2" y1="10.5" x2="52.8" y2="12.7" stroke="#c9a84c" stroke-width="0.7"/>
<line x1="28.0" y1="28.0" x2="51.2" y2="10.5" stroke="#c9a84c" stroke-width="0.7"/>
<line x1="40.7" y1="15.0" x2="51.2" y2="10.5" stroke="#c9a84c" stroke-width="0.7"/>
<line x1="51.2" y1="10.5" x2="48.6" y2="6.9" stroke="#c9a84c" stroke-width="0.7"/>
<line x1="48.6" y1="6.9" x2="40.7" y2="15.0" stroke="#c9a84c" stroke-width="0.7"/>
<line x1="40.7" y1="15.0" x2="28.0" y2="28.0" stroke="#5fa8a8" stroke-width="0.6"/></svg>